<svg clip-rule="evenodd" fill-rule="evenodd" stroke-linejoin="round" stroke-miterlimit="1.41421" viewBox="0 0 556 112" xmlns="http://www.w3.org/2000/svg"><g fill="#fff" fill-rule="nonzero"><g transform="translate(-5.22 44.1369)"><path d="m35.46-30.18c0-7.92-5.58-11.82-13.2-11.82h-17.04v42h18.78c8.16 0 13.32-4.86 13.32-12.36 0-4.74-2.4-8.22-6.78-9.72 3.3-1.62 4.92-4.56 4.92-8.1zm-13.68-5.76c4.08 0 6.84 1.8 6.84 5.94-.06 4.08-2.82 5.64-6.84 5.64h-9.6v-11.58zm1.02 17.28c1.92 0 3.84.12 5.46 1.32 1.44 1.2 2.16 2.88 2.16 4.98-.18 4.02-2.94 6.24-6.84 6.24h-11.4v-12.54z"/><path d="m65.04-20.4-17.1-21.72h-2.58v42.12h7.02v-26.28l12.18 15.54h.96l12.12-15.54v26.28h7.02v-42.12h-2.58z"/><path d="m120.96-5.64v-30.78h6.12v-5.58h-19.2v5.58h6.12v30.78h-6.66v5.64h20.28v-5.64z"/></g><g transform="translate(123.96 44.1369)"><path d="m32.52 0v-16.98c0-7.14-3.6-12.54-11.46-12.54-3.78 0-8.22 1.38-9.84 5.04 0-5.52-4.86-5.28-9.06-4.5v4.26c2.94-.18 3.06.78 3.06 4.2v20.52h6.6v-16.44c0-4.68 3.24-7.86 7.32-7.86 3.9.06 6.84 2.82 6.78 7.32v16.98z"/><path d="m42.84 0h6.42v-23.88h9.78v-4.92h-9.78v-3.78c0-7.2 5.7-7.8 10.8-5.7l.72-4.56c-9.06-3-17.82-1.26-17.82 10.14v3.9h-5.46v4.92h5.34z"/><path d="m92.22-14.58c0-10.14-7.8-15.18-15.54-15.06-7.56.12-15 5.1-15 15.06 0 10.08 7.62 15.12 15.24 15.12s15.3-5.04 15.3-15.12zm-24.06 0c0-6.12 4.2-9.18 8.52-9.3 4.44-.12 9 3 9 9.3 0 6.18-4.32 9.3-8.64 9.36-4.44.06-8.88-3.06-8.88-9.36z"/><path d="m106.02-24.72c-.3-4.68-4.98-5.4-9.24-4.44l.06 4.44c3.12-.18 3.12 1.14 3.12 3.72v21h6.48v-16.74c0-4.68 3.48-7.2 7.38-7.2 2.1 0 4.02.6 5.76 1.74l1.62-5.64c-1.86-1.38-4.26-2.1-6.66-2.04-3.54 0-7.38 1.8-8.52 5.16z"/><path d="m171.84 0v-16.92c.18-6.96-1.86-12.6-9.78-12.6-4.44 0-8.94 1.62-10.56 5.46-1.14-3.54-3.72-5.46-8.76-5.46-3.96 0-8.22 1.8-9.84 5.34.18-6.06-5.22-5.76-9.06-4.8l.06 4.02c2.88-.18 3.06.9 3.06 4.26v20.7h6.54v-16.68c0-4.56 2.94-7.44 7.02-7.5s5.94 2.94 5.94 7.44v16.74h6.42v-16.74c.06-4.56 2.76-7.44 6.78-7.5 3.84-.06 5.64 3 5.58 7.32v16.92z"/><path d="m198.78-4.86c.18 5.7 3.72 5.7 8.28 4.92l-.12-3.72c-3.12.3-3-1.44-3-4.14v-11.4c0-7.98-6.24-10.44-13.26-10.44-3.84 0-7.74.78-10.68 2.28l.96 4.68c3.6-1.8 16.62-4.32 16.62 3.3v2.88c-2.58-1.44-5.76-2.16-8.58-2.16-6.36 0-11.4 3.3-11.22 10.2 0 5.64 5.1 9 10.38 9 4.08 0 8.7-1.56 10.62-5.4zm-1.2-5.04c-.66 3.66-4.68 5.28-8.1 5.28-2.64 0-5.28-1.32-5.28-4.2 0-3.54 2.7-5.4 5.88-5.46 2.58-.06 5.34.72 7.5 1.98z"/></g><g transform="translate(332.04 44.1369)"><path d="m13.56-37.8h-5.76l-.66 8.94h-5.88v4.26l5.88.42v13.14c0 11.34 7.74 13.62 17.64 10.56l-.66-4.92c-5.94 2.1-10.56 1.62-10.56-5.76v-13.02h10.02v-4.68h-10.02z"/><path d="m29.58-37.86c0 2.64 2.04 3.96 4.02 3.9 1.92-.06 3.84-1.32 3.84-3.9 0-2.52-1.92-3.84-3.9-3.84s-3.96 1.26-3.96 3.84zm7.2 9.24h-6.54v28.62h6.54z"/><path d="m72.78-19.32c-1.56-7.08-7.74-10.5-14.04-10.44-7.5.06-15.18 5.22-15.18 15.18 0 10.02 7.68 15.06 15.24 15.06 6.36 0 12.66-3.6 14.16-10.92h-6.24c-1.32 3.54-4.56 5.28-7.8 5.28-4.38 0-8.88-3.18-8.88-9.42 0-6.12 4.56-9.36 9-9.36 3.36 0 6.42 1.5 7.68 4.62z"/><path d="m98.04-4.86c.18 5.7 3.72 5.7 8.28 4.92l-.12-3.72c-3.12.3-3-1.44-3-4.14v-11.4c0-7.98-6.24-10.44-13.26-10.44-3.84 0-7.74.78-10.68 2.28l.96 4.68c3.6-1.8 16.62-4.32 16.62 3.3v2.88c-2.58-1.44-5.76-2.16-8.58-2.16-6.36 0-11.4 3.3-11.22 10.2 0 5.64 5.1 9 10.38 9 4.08 0 8.7-1.56 10.62-5.4zm-1.2-5.04c-.66 3.66-4.68 5.28-8.1 5.28-2.64 0-5.28-1.32-5.28-4.2 0-3.54 2.7-5.4 5.88-5.46 2.58-.06 5.34.72 7.5 1.98z"/></g><path d="m27.186-23.138c0-6.072-4.278-9.062-10.12-9.062h-13.064v32.2h14.398c6.256 0 10.212-3.726 10.212-9.476 0-3.634-1.84-6.302-5.198-7.452 2.53-1.242 3.772-3.496 3.772-6.21zm-10.488-4.416c3.128 0 5.244 1.38 5.244 4.554-.046 3.128-2.162 4.324-5.244 4.324h-7.36v-8.878zm.782 13.248c1.472 0 2.944.092 4.186 1.012 1.104.92 1.656 2.208 1.656 3.818-.138 3.082-2.254 4.784-5.244 4.784h-8.74v-9.614z" transform="translate(69.4817 98.6844)"/><g transform="translate(100.0257 98.6844)"><path d="m18.446-22.172v12.696c0 3.542-2.438 5.842-5.612 5.842-2.944 0-4.83-2.162-4.784-5.704v-12.834h-5.06v12.834c0 5.428 2.162 9.706 8.28 9.706 3.128 0 6.164-.966 7.682-3.956 0 4.784 4.048 4.186 6.9 3.68l-.046-3.266c-2.116.23-2.346-.506-2.346-3.174v-15.824z"/><path d="m29.164-6.532c.368 5.52 5.244 7.084 10.166 7.084s9.66-2.116 9.66-7.038c0-5.244-4.508-6.026-9.154-6.624-3.45-.414-5.244-.828-5.29-2.668-.138-1.978 2.254-3.082 4.554-3.082 2.346 0 5.014.69 5.014 2.898h4.416c.138-4.416-4.324-6.67-9.43-6.67-4.83 0-9.43 2.208-9.43 6.946.138 5.014 5.244 5.52 9.798 6.118 2.898.368 4.968.966 4.968 2.99-.138 2.714-2.852 3.404-5.29 3.404-2.392 0-4.922-1.058-5.06-3.358z"/><path d="m53.636-29.026c0 2.024 1.564 3.036 3.082 2.99 1.472-.046 2.944-1.012 2.944-2.99 0-1.932-1.472-2.944-2.99-2.944s-3.036.966-3.036 2.944zm5.52 7.084h-5.014v21.942h5.014z"/><path d="m87.4 0v-13.018c0-5.474-2.76-9.614-8.786-9.614-2.898 0-6.302 1.058-7.544 3.864 0-4.232-3.726-4.048-6.946-3.45v3.266c2.254-.138 2.346.598 2.346 3.22v15.732h5.06v-12.604c0-3.588 2.484-6.026 5.612-6.026 2.99.046 5.244 2.162 5.198 5.612v13.018z"/><path d="m103.73-22.678c-6.026 0-11.362 3.726-11.5 11.132-.23 7.498 5.152 12.19 12.466 12.052 2.806 0 5.796-.736 8.372-1.886l-.644-3.726c-2.622 1.15-5.29 1.518-8.05 1.38-4.048 0-7.222-2.392-7.222-6.44h16.376c1.472-7.36-2.024-12.512-9.798-12.512zm-.046 3.864c3.174 0 5.934 1.748 5.796 5.106h-12.236c.69-3.496 3.128-5.106 6.44-5.106z"/><path d="m117.392-6.532c.368 5.52 5.244 7.084 10.166 7.084s9.66-2.116 9.66-7.038c0-5.244-4.508-6.026-9.154-6.624-3.45-.414-5.244-.828-5.29-2.668-.138-1.978 2.254-3.082 4.554-3.082 2.346 0 5.014.69 5.014 2.898h4.416c.138-4.416-4.324-6.67-9.43-6.67-4.83 0-9.43 2.208-9.43 6.946.138 5.014 5.244 5.52 9.798 6.118 2.898.368 4.968.966 4.968 2.99-.138 2.714-2.852 3.404-5.29 3.404-2.392 0-4.922-1.058-5.06-3.358z"/><path d="m140.76-6.532c.368 5.52 5.244 7.084 10.166 7.084s9.66-2.116 9.66-7.038c0-5.244-4.508-6.026-9.154-6.624-3.45-.414-5.244-.828-5.29-2.668-.138-1.978 2.254-3.082 4.554-3.082 2.346 0 5.014.69 5.014 2.898h4.416c.138-4.416-4.324-6.67-9.43-6.67-4.83 0-9.43 2.208-9.43 6.946.138 5.014 5.244 5.52 9.798 6.118 2.898.368 4.968.966 4.968 2.99-.138 2.714-2.852 3.404-5.29 3.404-2.392 0-4.922-1.058-5.06-3.358z"/><path d="m193.062-15.64-13.11-16.652h-1.978v32.292h5.382v-20.148l9.338 11.914h.736l9.292-11.914v20.148h5.382v-32.292h-1.978z"/></g><g transform="translate(311.8097 98.6844)"><path d="m17.664-3.726c.138 4.37 2.852 4.37 6.348 3.772l-.092-2.852c-2.392.23-2.3-1.104-2.3-3.174v-8.74c0-6.118-4.784-8.004-10.166-8.004-2.944 0-5.934.598-8.188 1.748l.736 3.588c2.76-1.38 12.742-3.312 12.742 2.53v2.208c-1.978-1.104-4.416-1.656-6.578-1.656-4.876 0-8.74 2.53-8.602 7.82 0 4.324 3.91 6.9 7.958 6.9 3.128 0 6.67-1.196 8.142-4.14zm-.92-3.864c-.506 2.806-3.588 4.048-6.21 4.048-2.024 0-4.048-1.012-4.048-3.22 0-2.714 2.07-4.14 4.508-4.186 1.978-.046 4.094.552 5.75 1.518z"/><path d="m50.186 0v-13.018c0-5.474-2.76-9.614-8.786-9.614-2.898 0-6.302 1.058-7.544 3.864 0-4.232-3.726-4.048-6.946-3.45v3.266c2.254-.138 2.346.598 2.346 3.22v15.732h5.06v-12.604c0-3.588 2.484-6.026 5.612-6.026 2.99.046 5.244 2.162 5.198 5.612v13.018z"/><path d="m70.794-3.726c.138 4.37 2.852 4.37 6.348 3.772l-.092-2.852c-2.392.23-2.3-1.104-2.3-3.174v-8.74c0-6.118-4.784-8.004-10.166-8.004-2.944 0-5.934.598-8.188 1.748l.736 3.588c2.76-1.38 12.742-3.312 12.742 2.53v2.208c-1.978-1.104-4.416-1.656-6.578-1.656-4.876 0-8.74 2.53-8.602 7.82 0 4.324 3.91 6.9 7.958 6.9 3.128 0 6.67-1.196 8.142-4.14zm-.92-3.864c-.506 2.806-3.588 4.048-6.21 4.048-2.024 0-4.048-1.012-4.048-3.22 0-2.714 2.07-4.14 4.508-4.186 1.978-.046 4.094.552 5.75 1.518z"/><path d="m97.06 1.288c0 5.152-2.53 6.9-5.98 6.946-2.576.046-5.612-.92-8.464-2.3l-.736 4.048c2.99 1.656 6.302 2.53 9.338 2.484 5.796-.046 10.672-3.404 10.672-11.086v-21.758c-2.898-1.242-5.98-2.024-9.154-2.07-6.808-.138-12.42 3.496-12.42 11.546 0 7.314 4.37 11.638 10.028 11.684 2.116 0 4.416-.552 6.716-1.84zm-.092-6.578c-1.84 1.196-3.726 1.794-5.474 1.748-3.45-.046-6.164-2.53-6.164-7.36.046-4.968 2.714-7.36 6.946-7.36 1.564 0 3.128.276 4.692.828z"/><path d="m118.404-22.678c-6.026 0-11.362 3.726-11.5 11.132-.23 7.498 5.152 12.19 12.466 12.052 2.806 0 5.796-.736 8.372-1.886l-.644-3.726c-2.622 1.15-5.29 1.518-8.05 1.38-4.048 0-7.222-2.392-7.222-6.44h16.376c1.472-7.36-2.024-12.512-9.798-12.512zm-.046 3.864c3.174 0 5.934 1.748 5.796 5.106h-12.236c.69-3.496 3.128-5.106 6.44-5.106z"/><path d="m168.728 0v-12.972c.138-5.336-1.426-9.66-7.498-9.66-3.404 0-6.854 1.242-8.096 4.186-.874-2.714-2.852-4.186-6.716-4.186-3.036 0-6.302 1.38-7.544 4.094.138-4.646-4.002-4.416-6.946-3.68l.046 3.082c2.208-.138 2.346.69 2.346 3.266v15.87h5.014v-12.788c0-3.496 2.254-5.704 5.382-5.75s4.554 2.254 4.554 5.704v12.834h4.922v-12.834c.046-3.496 2.116-5.704 5.198-5.75 2.944-.046 4.324 2.3 4.278 5.612v12.972z"/><path d="m185.104-22.678c-6.026 0-11.362 3.726-11.5 11.132-.23 7.498 5.152 12.19 12.466 12.052 2.806 0 5.796-.736 8.372-1.886l-.644-3.726c-2.622 1.15-5.29 1.518-8.05 1.38-4.048 0-7.222-2.392-7.222-6.44h16.376c1.472-7.36-2.024-12.512-9.798-12.512zm-.046 3.864c3.174 0 5.934 1.748 5.796 5.106h-12.236c.69-3.496 3.128-5.106 6.44-5.106z"/><path d="m221.996 0v-13.018c0-5.474-2.76-9.614-8.786-9.614-2.898 0-6.302 1.058-7.544 3.864 0-4.232-3.726-4.048-6.946-3.45v3.266c2.254-.138 2.346.598 2.346 3.22v15.732h5.06v-12.604c0-3.588 2.484-6.026 5.612-6.026 2.99.046 5.244 2.162 5.198 5.612v13.018z"/></g><path d="m10.396-28.98h-4.416l-.506 6.854h-4.508v3.266l4.508.322v10.074c0 8.694 5.934 10.442 13.524 8.096l-.506-3.772c-4.554 1.61-8.096 1.242-8.096-4.416v-9.982h7.682v-3.588h-7.682z" transform="translate(536.4737 98.6844)"/></g></svg>